<svg height="512" width="512" xmlns="http://www.w3.org/2000/svg"><g fill="#fff"><path d="M479.934 48.133c8.547 0 15.5-6.953 15.5-15.5V15.5c0-8.547-6.953-15.5-15.5-15.5H32.066c-8.547 0-15.5 6.953-15.5 15.5v17.133c0 8.547 6.953 15.5 15.5 15.5h1.066V91.9c0 4.142 3.357 7.5 7.5 7.5s7.5-3.358 7.5-7.5V48.133h415.734V347.9H48.133v-226c0-4.142-3.357-7.5-7.5-7.5s-7.5 3.358-7.5 7.5v226h-1.066c-8.547 0-15.5 6.953-15.5 15.5v17.133c0 8.547 6.953 15.5 15.5 15.5H80.44l-27.429 95.841c-1.375 4.806-.438 9.853 2.572 13.844 3.01 3.992 7.603 6.282 12.603 6.282h32.468c7.008 0 13.248-4.705 15.175-11.441l6.208-21.692H223.65v17.35c0 8.703 7.08 15.783 15.783 15.783h33.133c8.703 0 15.783-7.08 15.783-15.783v-17.35h101.613l6.208 21.691c1.927 6.737 8.167 11.442 15.175 11.442h32.468c5 0 9.593-2.29 12.602-6.282 3.01-3.992 3.947-9.038 2.572-13.844l-27.429-95.841h48.374c8.547 0 15.5-6.953 15.5-15.5V363.4c0-8.547-6.953-15.5-15.5-15.5h-1.066V48.133zM100.654 497H68.187c-.097 0-.391 0-.626-.312a.738.738 0 01-.127-.687l28.554-99.775h34.099l-28.679 100.207a.788.788 0 01-.754.567zm172.696-.783a.784.784 0 01-.783.783h-33.133a.784.784 0 01-.783-.783v-17.35h34.699zm-147.02-32.35l5.19-18.133h248.96l5.189 18.133zm147.02-67.641v34.507h-34.7v-34.507zm171.09 100.462c-.236.312-.53.312-.626.312h-32.468a.786.786 0 01-.753-.568l-28.679-100.206h34.099l28.554 99.775a.738.738 0 01-.127.687zm-68.252-65.955H288.35v-34.7h77.907zM480.434 363.4v17.133a.5.5 0 01-.5.5H190.301c-4.143 0-7.5 3.358-7.5 7.5s3.357 7.5 7.5 7.5h33.35v34.7h-87.838l9.931-34.7H160.3c4.143 0 7.5-3.358 7.5-7.5s-3.357-7.5-7.5-7.5H32.066a.5.5 0 01-.5-.5V363.4a.5.5 0 01.5-.5h447.867c.276 0 .501.224.501.5zM32.066 33.133a.5.5 0 01-.5-.5V15.5a.5.5 0 01.5-.5h447.867a.5.5 0 01.5.5v17.133a.5.5 0 01-.5.5z"/><path d="M115.967 305.7c0 13.271 10.796 24.066 24.066 24.066S164.1 318.971 164.1 305.7c0-13.27-10.796-24.067-24.066-24.067s-24.067 10.797-24.067 24.067zm24.066-9.067c4.999 0 9.066 4.067 9.066 9.067 0 4.999-4.067 9.066-9.066 9.066s-9.066-4.067-9.066-9.066 4.067-9.067 9.066-9.067zm231.934-181.647c13.271 0 24.066-10.796 24.066-24.067 0-13.27-10.796-24.066-24.066-24.066S347.9 77.648 347.9 90.919s10.796 24.067 24.067 24.067zm0-33.133c4.999 0 9.066 4.067 9.066 9.066 0 5-4.067 9.067-9.066 9.067s-9.066-4.067-9.066-9.067c-.001-4.999 4.067-9.066 9.066-9.066zM132.533 256c0 4.142 3.357 7.5 7.5 7.5s7.5-3.358 7.5-7.5v-16.567c0-4.142-3.357-7.5-7.5-7.5s-7.5 3.358-7.5 7.5zm7.5-42.2a7.5 7.5 0 007.5-7.5v-16.566c0-4.142-3.357-7.5-7.5-7.5s-7.5 3.358-7.5 7.5V206.3a7.5 7.5 0 007.5 7.5zm-21.87-51.897c1.465 1.464 3.385 2.197 5.304 2.197s3.839-.732 5.304-2.197l11.263-11.263 11.263 11.263a7.476 7.476 0 005.304 2.197 7.5 7.5 0 005.304-12.803l-11.263-11.263 11.263-11.263a7.5 7.5 0 00-10.607-10.606l-11.263 11.263-11.263-11.263a7.5 7.5 0 00-10.607 0 7.5 7.5 0 000 10.606l11.263 11.263-11.263 11.263a7.497 7.497 0 00-.002 10.606zm143.141 63.944a7.5 7.5 0 00-10.607 0l-11.263 11.263-11.263-11.263a7.5 7.5 0 00-10.607 0 7.5 7.5 0 000 10.606l11.263 11.264-11.263 11.263a7.5 7.5 0 005.304 12.803 7.478 7.478 0 005.304-2.197l11.263-11.263 11.263 11.263a7.476 7.476 0 005.304 2.197 7.5 7.5 0 005.304-12.803l-11.263-11.263 11.263-11.264a7.503 7.503 0 00-.002-10.606zm132.533 0a7.5 7.5 0 00-10.607 0l-11.263 11.263-11.263-11.263a7.5 7.5 0 00-10.607 0 7.5 7.5 0 000 10.606l11.263 11.264-11.263 11.263a7.5 7.5 0 005.304 12.803 7.478 7.478 0 005.304-2.197l11.263-11.263 11.263 11.263a7.476 7.476 0 005.304 2.197 7.5 7.5 0 005.304-12.803l-11.263-11.263 11.263-11.264a7.501 7.501 0 00-.002-10.606zm-220.67-43.614c-4.143 0-7.5 3.358-7.5 7.5s3.357 7.5 7.5 7.5h198.8a7.5 7.5 0 007.5-7.5v-31.989l3.763 3.763c1.465 1.464 3.385 2.197 5.304 2.197s3.839-.732 5.304-2.197a7.5 7.5 0 000-10.606l-16.566-16.566a7.5 7.5 0 00-10.607 0L350.097 150.9a7.5 7.5 0 0010.607 10.606l3.763-3.763v24.489h-191.3z"/></g></svg>